PathFileType	4	(X/Y/Z)	C:\Users\Basilio\Documents\Thesis Gigler\squatting_fais\c3dfiles\047\SJ_pre4\markers_experimental.trc
DataRate	CameraRate	NumFrames	NumMarkers	Units	OrigDataRate	OrigDataStartFrame	OrigNumFrames
200.000000	200.000000	4	61	mm	200.000000	196	1569
Frame#	Time	FHD			LBHD			RBHD			C7			T10			CLAV			LSHO			LUUPA			LMUPA			LDUPA			LLEP			LMEP			LRAD			LUL			LRFIN			RSHO			RUPA1			RMUPA			RDUPA			RLEP			RMEP			RRAD			RUL			RUFIN			LASI			RASI			USACR			LSACR			RSACR			LTHI1			LTHI2			LTHI3			LTHI4			LLFC			LMFC			LTIB1			LTIB2			LTIB3			LTIB4			LLMAL			LMMAL			LMT1			LMT2			LMT5			RTHI			RTHI2			RTHI3			RTHI4			RLFC			RMFC			RTIB1			RTIB2			RTIB3			RTIB4			RLMAL			RMMAL			RHEE			RMT1			RMT2			RMT5			*60			
		X1	Y1	Z1	X2	Y2	Z2	X3	Y3	Z3	X4	Y4	Z4	X5	Y5	Z5	X6	Y6	Z6	X7	Y7	Z7	X8	Y8	Z8	X9	Y9	Z9	X10	Y10	Z10	X11	Y11	Z11	X12	Y12	Z12	X13	Y13	Z13	X14	Y14	Z14	X15	Y15	Z15	X16	Y16	Z16	X17	Y17	Z17	X18	Y18	Z18	X19	Y19	Z19	X20	Y20	Z20	X21	Y21	Z21	X22	Y22	Z22	X23	Y23	Z23	X24	Y24	Z24	X25	Y25	Z25	X26	Y26	Z26	X27	Y27	Z27	X28	Y28	Z28	X29	Y29	Z29	X30	Y30	Z30	X31	Y31	Z31	X32	Y32	Z32	X33	Y33	Z33	X34	Y34	Z34	X35	Y35	Z35	X36	Y36	Z36	X37	Y37	Z37	X38	Y38	Z38	X39	Y39	Z39	X40	Y40	Z40	X41	Y41	Z41	X42	Y42	Z42	X43	Y43	Z43	X44	Y44	Z44	X45	Y45	Z45	X46	Y46	Z46	X47	Y47	Z47	X48	Y48	Z48	X49	Y49	Z49	X50	Y50	Z50	X51	Y51	Z51	X52	Y52	Z52	X53	Y53	Z53	X54	Y54	Z54	X55	Y55	Z55	X56	Y56	Z56	X57	Y57	Z57	X58	Y58	Z58	X59	Y59	Z59	X60	Y60	Z60	X61	Y61	Z61	

197	0.98	-53.56494140625001	1600.239501953125	-884.8425292968752	-208.5102081298829	1658.325805664063	-962.513122558594	-227.1693267822266	1666.375122070313	-814.9207763671877	-344.6935729980469	1500.059692382813	-892.917907714844	-417.7883300781251	1177.831665039063	-883.7102050781252	-213.5549774169922	1403.329711914063	-895.6187744140627	-281.9411315917969	1444.339477539063	-1067.982543945313	-403.6300659179689	1333.744262695313	-1185.222412109375	-365.6727905273438	1307.127075195313	-1208.3203125	-417.0799255371095	1279.737182617188	-1227.41748046875	-408.5487670898439	1215.7626953125	-1262.991821289063	-462.4512023925782	1185.868530273438	-1185.424926757813	-295.2355346679688	1064.171752929688	-1092.654296875	-257.2676391601563	1033.852661132813	-1153.22900390625	-234.9232635498047	1057.024047851563	-1055.188110351563	-278.8051757812501	1459.092895507813	-730.0725097656251	-404.8794555664064	1353.696044921875	-598.0829467773439	-371.6821594238282	1322.83154296875	-577.3119506835939	-422.6015930175782	1300.160888671875	-555.8031005859376	-417.1521301269532	1233.20068359375	-521.9808959960939	-472.6370239257814	1202.348510742188	-589.9031372070314	-284.7548828125001	1091.34912109375	-684.9921264648439	-261.5458679199219	1054.61962890625	-623.5431518554689	-227.3594055175782	1066.4345703125	-718.5279541015626	-229.9855194091797	955.8159179687502	-1003.159729003906	-215.2626190185547	960.1856079101565	-773.3574829101565	-410.0061340332032	1029.949584960938	-885.3344726562502	-413.8927612304689	998.6680908203127	-913.795349121094	-408.7774658203126	998.2238769531252	-856.052429199219	-340.3326110839844	816.9150390625002	-1078.43603515625	-311.4776000976563	740.1652832031251	-1097.60205078125	-263.1622619628907	740.0693969726564	-1094.528198242188	-341.1862182617188	686.5690917968751	-1094.13037109375	-365.2536315917969	510.4642639160157	-1080.779541015625	-299.8039550781251	479.4248352050782	-981.717712402344	-313.2178344726563	311.9405212402344	-1042.657958984375	-348.2359619140626	281.2005615234376	-1117.716430664063	-316.8149414062501	271.8735656738282	-1084.839233398438	-321.4564819335938	189.5699462890625	-1069.101684570313	-380.8419494628907	96.55995941162112	-1121.977783203125	-341.3557128906251	100.0940933227539	-1040.961059570313	-217.6784210205079	64.28134918212892	-1098.013793945313	-228.1548919677735	62.18793869018556	-1140.248657226563	-276.4666748046876	43.11534118652344	-1178.579833984375	-335.2140808105469	787.233093261719	-685.7395629882814	-301.3222961425782	731.2891845703126	-671.7726440429689	-268.1689147949219	732.4906005859376	-673.2703247070314	-329.4897766113282	651.9611816406251	-680.8881835937501	-331.3358459472657	500.2461242675782	-689.7545776367189	-282.0736694335938	485.152069091797	-800.251892089844	-299.2384643554688	369.8375854492188	-693.1898803710939	-369.7369995117188	291.4123535156251	-665.4525756835939	-323.5163574218751	289.7182617187501	-670.4966430664064	-308.5617065429688	240.0213623046876	-700.6231689453126	-377.9067077636719	90.39129638671876	-679.8083496093751	-332.6936645507813	104.9080200195313	-761.2418212890626	-420.6358032226564	50.89184570312501	-741.0559082031251	-210.0052032470704	56.34260940551759	-709.3969116210939	-218.8519897460938	61.19932937622072	-665.1189575195314	-275.3484191894532	31.11345291137696	-619.4191894531251	nan	nan	nan	
198	0.985	-54.35493087768556	1601.828002929688	-885.1967773437502	-210.1198883056641	1658.664184570313	-962.6042480468752	-228.3699645996094	1666.558349609375	-815.037536621094	-344.8934631347657	1500.03076171875	-892.878356933594	-417.5444641113282	1177.843627929688	-883.6003417968752	-213.3484802246094	1403.603759765625	-895.957702636719	-282.1302185058594	1444.311767578125	-1067.995239257813	-403.6654357910157	1333.631713867188	-1185.121459960938	-365.7553710937501	1307.00146484375	-1208.144409179688	-417.0598144531251	1279.667236328125	-1227.312377929688	-408.551483154297	1215.671997070313	-1262.908813476563	-462.4423217773439	1185.732299804688	-1185.344604492188	-295.2655334472657	1063.959838867188	-1092.509033203125	-257.0633544921876	1033.75439453125	-1153.140258789063	-234.7990722656251	1057.026977539063	-1055.0205078125	-278.5540466308594	1459.254638671875	-730.1614379882814	-404.5112609863282	1353.705200195313	-598.0328979492189	-371.3073120117188	1322.899169921875	-577.3626098632814	-422.2413330078126	1300.17822265625	-555.6868286132814	-416.5679321289064	1233.351196289063	-522.0645751953126	-472.4244689941407	1202.33837890625	-589.8284912109376	-285.9912719726563	1091.114379882813	-684.1093750000001	-261.2733154296876	1054.629272460938	-623.3923950195314	-226.9609680175782	1066.405029296875	-718.4641723632814	-229.8374176025391	955.9165039062502	-1003.060668945313	-215.1361083984376	960.1752929687502	-773.2004394531252	-409.9373474121095	1029.963256835938	-885.2280883789065	-413.778778076172	998.7243652343752	-913.6076660156252	-408.6046142578126	998.207214355469	-855.8732910156252	-340.2188110351563	816.9465332031252	-1078.363891601563	-311.3927001953126	740.1459350585939	-1097.557861328125	-263.0894470214844	740.1215209960939	-1094.51611328125	-341.1042175292969	686.5563354492189	-1094.121459960938	-365.1083068847657	510.4925842285157	-1080.814208984375	-299.7627563476563	479.363006591797	-981.7586059570315	-313.1782531738282	311.8876342773438	-1042.5693359375	-348.1402282714844	281.1946411132813	-1117.769897460938	-316.5011901855469	271.5684814453126	-1084.8359375	-321.4034118652344	189.5158386230469	-1069.0361328125	-380.8092956542969	96.45410156250003	-1122.060546875	-341.3914794921876	100.0977325439453	-1040.93212890625	-217.7137298583985	64.21548461914064	-1097.958618164063	-228.1621704101563	62.24583435058595	-1140.26611328125	-276.4356384277344	43.09310531616212	-1178.591186523438	-335.1003112792969	787.3001098632815	-685.6356201171876	-301.1335144042969	731.2429199218751	-671.8318481445314	-268.0504455566407	732.4274291992189	-673.3038940429689	-329.4736328125001	652.1779174804689	-681.0246582031251	-331.4910583496094	500.2723083496095	-689.7507934570314	-282.4239196777344	485.0550537109376	-800.1677246093752	-299.3265686035157	369.8223266601563	-693.2644042968751	-369.7719421386719	291.4141235351563	-665.4271850585939	-323.5353088378907	289.7327575683594	-670.5924072265626	-308.6566467285157	240.0101318359376	-700.6298828125001	-377.8377990722657	90.4272918701172	-679.8908081054689	-332.6296081542969	104.9417495727539	-761.1892089843751	-420.6333923339845	50.9097023010254	-741.0744018554689	-210.0302734375001	56.3440399169922	-709.4126586914064	-218.8372802734376	61.38374710083009	-664.9636840820314	-275.3483886718751	31.07647323608399	-619.3626708984376	nan	nan	nan	
199	0.99	-55.05796813964845	1603.1884765625	-885.3292236328127	-211.3609161376954	1659.213623046875	-962.530456542969	-229.4502868652344	1666.883178710938	-815.147644042969	-345.0374450683594	1499.955810546875	-892.8105468750002	-417.4764404296876	1177.741088867188	-883.4448242187502	-213.2694244384766	1403.81005859375	-895.9876708984377	-282.2174987792969	1444.318603515625	-1068.064208984375	-403.6552124023439	1333.47998046875	-1185.09033203125	-365.9634704589844	1306.865234375	-1207.978881835938	-416.9807739257814	1279.5205078125	-1227.243041992188	-408.4278869628907	1215.552734375	-1262.874145507813	-462.3938903808595	1185.60498046875	-1185.277709960938	-295.0013122558594	1063.936889648438	-1092.3759765625	-256.8775939941407	1033.7724609375	-1153.00439453125	-234.4586639404297	1057.145263671875	-1054.963134765625	-278.6179199218751	1459.368408203125	-729.9368286132814	-404.2512817382814	1353.700073242188	-597.9528198242189	-370.9131774902344	1322.929931640625	-577.3533325195314	-421.8488769531251	1300.2275390625	-555.7754516601564	-416.3030090332032	1233.412719726563	-521.9330444335939	-472.1907043457032	1202.37353515625	-589.7201538085939	-284.6407775878907	1091.265625	-684.5028076171876	-261.0210266113282	1054.592529296875	-623.2908325195314	-226.6075897216797	1066.425903320313	-718.3910522460939	-229.704330444336	955.8108520507815	-1002.964599609375	-215.0414733886719	960.1140747070315	-773.0540161132815	-409.808563232422	1030.000732421875	-885.1480102539065	-413.6641845703126	998.7199707031252	-913.5080566406252	-408.4595642089845	998.1975708007815	-855.7344970703127	-340.1431884765626	816.9060668945315	-1078.200805664063	-311.2119445800782	740.1796264648439	-1097.505126953125	-263.0234069824219	740.1378173828126	-1094.484008789063	-341.0043029785157	686.5605468750001	-1094.087280273438	-364.7893371582032	510.4409484863282	-1080.843383789063	-299.7608642578126	479.276824951172	-981.7043457031252	-313.0162048339844	311.8522033691407	-1042.6826171875	-348.0054321289063	281.1245422363282	-1117.701538085938	-316.7149047851563	271.7406005859376	-1084.8154296875	-321.1969299316407	189.1305389404297	-1069.094970703125	-380.7981872558594	96.38675689697268	-1122.035766601563	-341.3816223144532	100.1097488403321	-1040.962524414063	-217.6526031494141	64.34561920166017	-1098.021850585938	-228.0527648925782	62.29461669921876	-1140.2509765625	-276.4909362792969	43.1444320678711	-1178.578857421875	-335.0014648437501	787.348571777344	-685.5200805664064	-301.0818176269532	731.2386474609376	-671.7293701171876	-267.9179687500001	732.4277343750001	-673.3606567382814	-329.4686889648438	652.1966552734376	-680.9895629882814	-331.5992126464844	500.3172912597657	-689.6653442382814	-282.4351196289063	485.1321105957032	-800.1855468750002	-299.3740539550782	369.8658142089844	-693.2617187500001	-369.7767028808594	291.3997192382813	-665.3745727539064	-323.5415039062501	289.7577514648438	-670.5900268554689	-308.6484069824219	240.0407257080079	-700.6485595703126	-377.8031005859376	90.64936828613283	-679.6345825195314	-332.7945556640626	104.9326171875	-761.1296386718751	-420.6561584472657	50.88094711303712	-741.0776977539064	-210.0520019531251	56.38639068603517	-709.4164428710939	-218.9268188476563	61.38119125366212	-665.0132446289064	-275.3632202148438	31.09644126892091	-619.4279174804689	nan	nan	nan	
200	0.995	-55.84046936035158	1604.960693359375	-885.6033935546877	-212.6190490722657	1659.554565429688	-962.7264404296877	-230.6316223144532	1667.142456054688	-815.1639404296877	-345.2622070312501	1499.900390625	-892.7077636718752	-417.4680786132814	1177.681518554688	-883.2840576171877	-213.2214050292969	1404.184936523438	-895.8831787109377	-282.3779296875001	1444.288208007813	-1068.086059570313	-403.6027832031251	1333.315551757813	-1185.021240234375	-365.8871459960938	1306.772338867188	-1207.934692382813	-416.9502563476564	1279.526977539063	-1227.188110351563	-408.3937072753907	1215.434814453125	-1262.804931640625	-462.3179321289064	1185.415405273438	-1185.206787109375	-294.7731628417969	1063.8955078125	-1092.231689453125	-256.5591125488282	1033.811401367188	-1153.06103515625	-234.4908447265626	1057.04296875	-1054.73486328125	-278.5140686035157	1459.49755859375	-729.7415161132814	-403.9988403320314	1353.757690429688	-597.8638916015626	-370.7911987304688	1322.981567382813	-577.2442016601564	-421.0361633300782	1300.089233398438	-555.9463500976564	-415.8762512207032	1233.341064453125	-521.9653320312501	-471.907928466797	1202.3974609375	-589.5639038085939	-284.2239685058594	1091.298583984375	-684.3715820312501	-260.6900024414063	1054.681884765625	-623.2300415039064	-226.3872375488282	1066.452514648438	-718.2560424804689	-229.5890197753907	955.7088623046877	-1002.823791503906	-214.9377899169922	960.0341796875002	-772.8366699218752	-409.7252197265626	1029.948364257813	-885.025817871094	-413.5974426269532	998.7410888671877	-913.3413085937502	-408.3312072753907	998.210144042969	-855.6026611328127	-340.0619812011719	816.6050415039065	-1077.559814453125	-311.1286010742188	740.1647949218751	-1097.493896484375	-262.8554382324219	740.1661376953126	-1094.451416015625	-340.8581542968751	686.5216674804689	-1094.05126953125	-364.6117858886719	510.4915466308595	-1080.814697265625	-299.7255859375001	479.2470092773439	-981.622253417969	-312.8657226562501	311.7948608398438	-1042.7958984375	-347.8620300292969	281.1119995117188	-1117.74462890625	-316.5864562988282	271.7559814453126	-1084.850463867188	-321.2581481933594	189.4247436523438	-1069.015991210938	-380.7881164550782	96.41419982910159	-1122.018188476563	-341.3423461914063	100.0734024047852	-1041.010498046875	-217.7349243164063	64.2111282348633	-1097.902465820313	-228.036605834961	62.20665359497072	-1140.288818359375	-276.4066467285157	43.13328933715821	-1178.574951171875	-334.9181213378907	787.3554687500002	-685.4662475585939	-300.9722595214844	731.2289428710939	-671.6591796875001	-267.8794555664063	732.3934936523439	-673.1505126953126	-329.4257202148438	652.1943359375001	-680.8872680664064	-331.6642761230469	500.3445434570314	-689.6519775390626	-282.5527648925782	485.1300354003907	-800.073181152344	-299.4187011718751	369.8272094726563	-693.2419433593751	-369.7788696289063	291.4234008789063	-665.3494262695314	-323.5782470703126	289.7493896484376	-670.5451660156251	-308.6404113769532	240.0417938232422	-700.6282958984376	-377.8558044433594	90.41653442382814	-679.8820800781251	-332.7546997070313	104.9803924560547	-761.1492309570314	-420.6586914062501	50.8644371032715	-741.0732421875001	-210.0380401611329	56.36000442504884	-709.3825073242189	-219.0009918212891	61.38762664794923	-665.0167236328126	-275.3815917968751	31.07383728027344	-619.3691406250001	nan	nan	nan	
